<svg xmlns="http://www.w3.org/2000/svg" width="898.235" height="235.552" viewBox="0 0 898.235 235.552">
  <g id="LogoSecondary_White-Orange" transform="translate(-663 -710)">
    <path id="Path_55" data-name="Path 55" d="M96.944,104.566,96.8,33.909,61.753,92.79H55.38L20.328,34.325v70.242H7.028V7.585h11.36L58.844,75.75l39.9-68.165H110.1l.139,96.982Z" transform="translate(663 710)" fill="#fff"/>
    <path id="Path_56" data-name="Path 56" d="M96.944,104.566,96.8,33.909,61.753,92.79H55.38L20.328,34.325v70.242H7.028V7.585h11.36L58.844,75.75l39.9-68.165H110.1l.139,96.982Z" transform="translate(663 710)" fill="none" stroke="#fff" stroke-miterlimit="10" stroke-width="14.055"/>
    <rect id="Rectangle_7" data-name="Rectangle 7" width="898.234" height="235.552" transform="translate(663 710)" fill="none"/>
    <path id="Path_57" data-name="Path 57" d="M183.392,71.038v33.528H169.676v-33.8L131.16,7.584h14.824l31.034,51.124L208.192,7.584h13.715Z" transform="translate(663 710)" fill="#fff"/>
    <path id="Path_58" data-name="Path 58" d="M183.392,71.038v33.528H169.676v-33.8L131.16,7.584h14.824l31.034,51.124L208.192,7.584h13.715Z" transform="translate(663 710)" fill="none" stroke="#fff" stroke-miterlimit="10" stroke-width="14.055"/>
    <rect id="Rectangle_8" data-name="Rectangle 8" width="898.234" height="235.552" transform="translate(663 710)" fill="none"/>
    <path id="Path_59" data-name="Path 59" d="M22.89,142.08v33.806H71.52V187.8H22.89v39.208H9.036V130.027H77.477V142.08Z" transform="translate(663 710)" fill="#f2873d"/>
    <path id="Path_60" data-name="Path 60" d="M22.89,142.08v33.806H71.52V187.8H22.89v39.208H9.036V130.027H77.477V142.08Z" transform="translate(663 710)" fill="none" stroke="#f2873d" stroke-miterlimit="10" stroke-width="14.055"/>
    <path id="Path_61" data-name="Path 61" d="M95.073,185.169V130.027h13.854v54.587c0,21.475,9.837,31.173,27.294,31.173s27.432-9.7,27.432-31.173V130.027h13.439v55.142c0,28.124-15.379,42.948-41.01,42.948-25.492,0-41.009-14.824-41.009-42.948" transform="translate(663 710)" fill="#f2873d"/>
    <path id="Path_62" data-name="Path 62" d="M95.073,185.169V130.027h13.854v54.587c0,21.475,9.837,31.173,27.294,31.173s27.432-9.7,27.432-31.173V130.027h13.439v55.142c0,28.124-15.379,42.948-41.01,42.948C110.59,228.117,95.073,213.293,95.073,185.169Z" transform="translate(663 710)" fill="none" stroke="#f2873d" stroke-miterlimit="10" stroke-width="14.055"/>
    <path id="Path_63" data-name="Path 63" d="M227.867,142.08H194.616V130.027h80.218V142.08H241.583v84.929H227.867Z" transform="translate(663 710)" fill="#f2873d"/>
    <path id="Path_64" data-name="Path 64" d="M227.867,142.08H194.616V130.027h80.218V142.08H241.583v84.929H227.867Z" transform="translate(663 710)" fill="none" stroke="#f2873d" stroke-miterlimit="10" stroke-width="14.055"/>
    <path id="Path_65" data-name="Path 65" d="M292.222,185.169V130.027h13.854v54.587c0,21.475,9.837,31.173,27.294,31.173s27.432-9.7,27.432-31.173V130.027h13.439v55.142c0,28.124-15.379,42.948-41.01,42.948-25.492,0-41.009-14.824-41.009-42.948" transform="translate(663 710)" fill="#f2873d"/>
    <path id="Path_66" data-name="Path 66" d="M292.222,185.169V130.027h13.854v54.587c0,21.475,9.837,31.173,27.294,31.173s27.432-9.7,27.432-31.173V130.027h13.439v55.142c0,28.124-15.379,42.948-41.01,42.948C307.739,228.117,292.222,213.293,292.222,185.169Z" transform="translate(663 710)" fill="none" stroke="#f2873d" stroke-miterlimit="10" stroke-width="14.055"/>
    <path id="Path_67" data-name="Path 67" d="M456.333,227.009l-20.92-29.787c-1.941.138-4.018.277-6.1.277H405.348v29.51H391.494V130.027h37.822c25.216,0,40.455,12.747,40.455,33.806,0,14.962-7.758,25.769-21.336,30.618l23,32.558Zm-.416-63.176c0-13.855-9.283-21.753-27.016-21.753H405.348v43.643H428.9c17.733,0,27.016-8.036,27.016-21.89" transform="translate(663 710)" fill="#f2873d"/>
    <path id="Path_68" data-name="Path 68" d="M456.333,227.009l-20.92-29.787c-1.941.138-4.018.277-6.1.277H405.348v29.51H391.494V130.027h37.822c25.216,0,40.455,12.747,40.455,33.806,0,14.962-7.758,25.769-21.336,30.618l23,32.558Zm-.416-63.176c0-13.855-9.283-21.753-27.016-21.753H405.348v43.643H428.9C446.634,185.723,455.917,177.687,455.917,163.833Z" transform="translate(663 710)" fill="none" stroke="#f2873d" stroke-miterlimit="10" stroke-width="14.055"/>
    <path id="Path_69" data-name="Path 69" d="M565.507,214.956v12.053H495.125V130.027h68.443V142.08H508.98v29.789h48.629v11.775H508.98v31.312Z" transform="translate(663 710)" fill="#f2873d"/>
    <path id="Path_70" data-name="Path 70" d="M565.507,214.956v12.053H495.125V130.027h68.443V142.08H508.98v29.789h48.629v11.775H508.98v31.312Z" transform="translate(663 710)" fill="none" stroke="#f2873d" stroke-miterlimit="10" stroke-width="14.055"/>
    <path id="Path_71" data-name="Path 71" d="M619.367,1.012h51.245L752.869,117.27l-58.819,81.1h20.565l58.32-81.1L691.176,1.012H812.239L896.994,117.27,816.109,234.54H758.18l82.087-116.764L778.242,30.5H758.18l61.854,86.772L738.717,234.54H619.367l83.584-117.27Z" transform="translate(663 710)" fill="#f2873d"/>
    <path id="Path_72" data-name="Path 72" d="M619.367,1.012h51.245L752.869,117.27l-58.819,81.1h20.565l58.32-81.1L691.176,1.012H812.239L896.994,117.27,816.109,234.54H758.18l82.087-116.764L778.242,30.5H758.18l61.854,86.772L738.717,234.54H619.367l83.584-117.27Z" transform="translate(663 710)" fill="none" stroke="#f2873d" stroke-miterlimit="10" stroke-width="2.024"/>
    <rect id="Rectangle_9" data-name="Rectangle 9" width="898.234" height="235.552" transform="translate(663 710)" fill="none"/>
  </g>
</svg>
